<?xml version="1.0" standalone="no"?>
<!DOCTYPE svg PUBLIC "-//W3C//DTD SVG 20010904//EN"
 "http://www.w3.org/TR/2001/REC-SVG-20010904/DTD/svg10.dtd">
<svg version="1.0" xmlns="http://www.w3.org/2000/svg"
 width="190.000000pt" height="190.000000pt" viewBox="0 0 190.000000 190.000000"
 preserveAspectRatio="xMidYMid meet">

<g transform="translate(0.000000,190.000000) scale(0.100000,-0.100000)"
fill="#000000" stroke="none">
<path d="M565 1747 c-92 -31 -127 -49 -208 -110 -128 -97 -232 -259 -278 -434
-30 -113 -36 -302 -14 -418 66 -355 352 -635 724 -710 112 -23 304 -16 410 15
170 48 325 143 442 269 88 93 147 193 190 319 30 88 33 110 37 243 3 111 0
165 -13 230 -88 432 -455 697 -830 600 -63 -17 -73 -17 -110 -3 -24 9 -86 16
-160 18 -106 4 -128 1 -190 -19z m175 -185 c0 -4 -18 -31 -39 -60 -146 -194
-149 -429 -7 -580 132 -141 369 -150 511 -21 90 83 126 164 127 285 0 115 -36
218 -114 323 l-41 54 59 -5 c83 -6 164 -49 244 -128 73 -74 117 -149 152 -260
19 -64 23 -96 23 -210 -1 -121 -4 -143 -29 -215 -41 -118 -80 -181 -170 -271
-134 -134 -302 -203 -494 -204 -114 0 -210 23 -322 78 -194 94 -328 275 -366
492 -28 163 -6 310 68 453 72 138 210 249 332 267 28 4 54 8 59 9 4 0 7 -2 7
-7z m277 -104 c57 -62 91 -126 102 -197 22 -141 -45 -245 -158 -245 -56 0 -98
23 -131 72 -22 31 -25 47 -25 121 0 72 4 95 27 143 24 52 110 158 128 158 4 0
29 -24 57 -52z"/>
</g>
</svg>
